Coordinates
version=1
nRows=9
nColumns=63
inDegrees=yes

Units are S.I. units (second, meters, Newtons, ...)
If the header above contains a line with 'inDegrees', this indicates whether rotational values are in degrees (yes) or radians (no).

endheader
time	pelvis_tilt	pelvis_list	pelvis_rotation	pelvis_tx	pelvis_ty	pelvis_tz	hip_flexion_r	hip_adduction_r	hip_rotation_r	knee_angle_r	knee_angle_r_beta	ankle_angle_r	subtalar_angle_r	mtp_angle_r	hip_flexion_l	hip_adduction_l	hip_rotation_l	knee_angle_l	knee_angle_l_beta	ankle_angle_l	subtalar_angle_l	mtp_angle_l	L5_S1_Flex_Ext	L5_S1_Lat_Bending	L5_S1_axial_rotation	L4_L5_Flex_Ext	L4_L5_Lat_Bending	L4_L5_axial_rotation	L3_L4_Flex_Ext	L3_L4_Lat_Bending	L3_L4_axial_rotation	L2_L3_Flex_Ext	L2_L3_Lat_Bending	L2_L3_axial_rotation	L1_L2_Flex_Ext	L1_L2_Lat_Bending	L1_L2_axial_rotation	L1_T12_Flex_Ext	L1_T12_Lat_Bending	L1_T12_axial_rotation	Abs_r3	Abs_r2	Abs_r1	Abs_t1	Abs_t2	neck_flexion	neck_bending	neck_rotation	arm_flex_r	arm_add_r	arm_rot_r	elbow_flex_r	pro_sup_r	wrist_flex_r	wrist_dev_r	arm_flex_l	arm_add_l	arm_rot_l	elbow_flex_l	pro_sup_l	wrist_flex_l	wrist_dev_l
      8.26666667	     -1.87290749	      5.93674881	    -29.41905743	     -1.72733116	      0.84873742	      0.31368815	    -10.44916098	     -9.27451011	     17.44828354	      9.57273593	      0.16707576	     13.21272913	    -10.82724609	      0.00000000	     20.46453413	     -7.66390876	    -20.79473187	     11.90260619	      0.20773967	      6.85784401	    -12.13481201	      0.00000000	     -0.00443809	     -0.84534019	      2.11537014	     -0.00824198	     -1.12430245	      2.24758078	     -0.00729134	     -2.05536014	      2.24758078	     -0.00507229	     -2.05536014	      1.85094888	     -0.00412121	     -1.72381772	      1.71873824	     -0.00253592	     -1.30943195	      1.58652761	     -0.03170083	     -9.56265730	     11.76505413	      0.00000000	      0.00000000	      0.00000000	      0.00000000	      0.00000000	     -0.59524931	      0.78854311	     -0.25985971	     26.40586310	     30.04840403	      0.00000000	      5.00000014	    -15.01800625	      6.78628795	    -48.36933507	     47.17920561	     29.15958289	      0.00000000	      5.00000014
      8.30000000	     -1.85922372	      5.96132118	    -29.46037534	     -1.72737508	      0.84878280	      0.31375862	    -10.43096509	     -9.29757024	     17.52526679	      9.59740414	      0.16750630	     13.18404269	    -10.95302050	      0.00000000	     20.43427083	     -7.67710317	    -21.11115987	     11.87766129	      0.20730430	      6.91094509	    -11.69774730	      0.00000000	     -0.00426588	     -0.84861932	      2.12035944	     -0.00792217	     -1.12866370	      2.25288190	     -0.00700842	     -2.06333302	      2.25288190	     -0.00487548	     -2.06333302	      1.85531451	     -0.00396130	     -1.73050452	      1.72279204	     -0.00243753	     -1.31451133	      1.59026958	     -0.03047078	     -9.59975150	     11.79280308	      0.00000000	      0.00000000	      0.00000000	      0.00000000	      0.00000000	     -0.52375863	      0.64203214	      1.67196227	     26.43452497	     21.84077720	      0.00000000	      5.00000014	    -15.06560135	      6.72815698	    -47.54809558	     47.40930986	     20.60181976	      0.00000000	      5.00000014
      8.33333333	     -1.86616042	      5.94652179	    -29.45307754	     -1.72734820	      0.84876710	      0.31373169	    -10.44346142	     -9.28265974	     17.55724029	      9.57999472	      0.16720245	     13.17501781	    -10.99786972	      0.00000000	     20.44069436	     -7.68812864	    -21.09045003	     11.89002744	      0.20752013	      6.91761099	    -11.74263832	      0.00000000	     -0.00404244	     -0.84680128	      2.12019637	     -0.00750721	     -1.12624571	      2.25270864	     -0.00664132	     -2.05891264	      2.25270864	     -0.00462010	     -2.05891264	      1.85517182	     -0.00375381	     -1.72679717	      1.72265955	     -0.00230985	     -1.31169519	      1.59014728	     -0.02887472	     -9.57918546	     11.79189615	      0.00000000	      0.00000000	      0.00000000	      0.00000000	      0.00000000	     -0.55231181	      0.66282848	      1.22917342	     26.44819639	     23.67966734	      0.00000000	      5.00000014	    -15.06105442	      6.73783122	    -47.71166451	     47.34507021	     22.60774856	      0.00000000	      5.00000014
      8.36666667	     -1.86918283	      5.95110813	    -29.33244777	     -1.72726489	      0.84875343	      0.31357210	    -10.45740286	     -9.30587472	     16.99342008	      9.58088679	      0.16721802	     13.37311380	    -10.30208166	      0.00000000	     20.49227138	     -7.58851835	    -20.47117556	     11.88684832	      0.20746464	      6.66400747	    -12.52599107	      0.00000000	     -0.00427720	     -0.84667189	      2.09835050	     -0.00794318	     -1.12607361	      2.22949741	     -0.00702700	     -2.05859803	      2.22949741	     -0.00488841	     -2.05859803	      1.83605669	     -0.00397180	     -1.72653331	      1.70490978	     -0.00244399	     -1.31149476	      1.57376288	     -0.03055158	     -9.57772174	     11.67039599	      0.00000000	      0.00000000	      0.00000000	      0.00000000	      0.00000000	     -0.56005455	      0.68005370	      1.00296892	     26.43794698	     24.62738517	      0.00000000	      5.00000014	    -15.04896413	      6.75585239	    -47.85135761	     47.31360352	     23.63714657	      0.00000000	      5.00000014
      8.40000000	     -1.87339131	      5.93571995	    -29.35518033	     -1.72728551	      0.84876232	      0.31358757	    -10.47601036	     -9.30752317	     16.91066820	      9.53378484	      0.16639594	     13.39729477	    -10.13610153	      0.00000000	     20.50840392	     -7.62641346	    -20.53035555	     11.94000212	      0.20839235	      6.68710634	    -12.48164477	      0.00000000	     -0.00446072	     -0.84496403	      2.10127723	     -0.00828401	     -1.12380216	      2.23260706	     -0.00732852	     -2.05444554	      2.23260706	     -0.00509816	     -2.05444554	      1.83861758	     -0.00414223	     -1.72305065	      1.70728775	     -0.00254886	     -1.30884928	      1.57595792	     -0.03186250	     -9.55840210	     11.68667358	      0.00000000	      0.00000000	      0.00000000	      0.00000000	      0.00000000	     -0.56569578	      0.67812055	      0.95101291	     26.46717350	     24.93232157	      0.00000000	      5.00000014	    -15.06449294	      6.77919061	    -47.87311198	     47.36221009	     23.94560408	      0.00000000	      5.00000014
      8.43333333	     -1.86558219	      5.93490528	    -29.45775865	     -1.72737114	      0.84877436	      0.31373011	    -10.42520466	     -9.26553396	     17.55915966	      9.61723743	      0.16785246	     13.14108268	    -11.05772278	      0.00000000	     20.44917057	     -7.68008466	    -20.85722260	     11.90196831	      0.20772853	      6.82745139	    -12.08490684	      0.00000000	     -0.00498532	     -0.84493628	      2.12293243	     -0.00925824	     -1.12376525	      2.25561570	     -0.00819038	     -2.05437806	      2.25561570	     -0.00569772	     -2.05437806	      1.85756587	     -0.00462937	     -1.72299406	      1.72488260	     -0.00284861	     -1.30880629	      1.59219932	     -0.03560965	     -9.55808815	     11.80711328	      0.00000000	      0.00000000	      0.00000000	      0.00000000	      0.00000000	     -0.55442291	      0.67679396	      1.01934834	     26.44115995	     24.67049367	      0.00000000	      5.00000014	    -15.03240473	      6.73646240	    -47.82098464	     47.26203714	     23.64611044	      0.00000000	      5.00000014
      8.46666667	     -1.86072774	      5.94709639	    -29.43508887	     -1.72732984	      0.84875793	      0.31372135	    -10.45561979	     -9.27901586	     17.56886695	      9.57757223	      0.16716017	     13.15263710	    -11.08296576	      0.00000000	     20.43988947	     -7.67925966	    -21.06076885	     11.89030472	      0.20752497	      6.92141043	    -11.75471680	      0.00000000	     -0.00452802	     -0.84683900	      2.11776805	     -0.00840899	     -1.12629587	      2.25012855	     -0.00743909	     -2.05900435	      2.25012855	     -0.00517508	     -2.05900435	      1.85304704	     -0.00420472	     -1.72687409	      1.72068654	     -0.00258731	     -1.31175361	      1.58832604	     -0.03234322	     -9.57961216	     11.77839055	      0.00000000	      0.00000000	      0.00000000	      0.00000000	      0.00000000	     -0.55678410	      0.69996157	      0.81104448	     26.42537335	     25.49240705	      0.00000000	      5.00000014	    -15.05379272	      6.75685564	    -47.90735348	     47.33001223	     24.53866368	      0.00000000	      5.00000014
      8.50000000	     -1.86755339	      5.93935255	    -29.41965756	     -1.72732026	      0.84876123	      0.31369857	    -10.46613412	     -9.27864447	     17.45604699	      9.55302616	      0.16673176	     13.20053942	    -10.88571281	      0.00000000	     20.45439023	     -7.68053735	    -20.99888630	     11.90393049	      0.20776278	      6.90033266	    -11.82491604	      0.00000000	     -0.00429824	     -0.84585246	      2.11404330	     -0.00798226	     -1.12498377	      2.24617100	     -0.00706158	     -2.05660567	      2.24617100	     -0.00491246	     -2.05660567	      1.84978789	     -0.00399135	     -1.72486234	      1.71766018	     -0.00245601	     -1.31022546	      1.58553247	     -0.03070190	     -9.56845220	     11.75767461	      0.00000000	      0.00000000	      0.00000000	      0.00000000	      0.00000000	     -0.56516019	      0.70055611	      0.76253767	     26.43006705	     25.77586464	      0.00000000	      5.00000014	    -15.05132837	      6.76042470	    -47.94362564	     47.30185698	     24.82313300	      0.00000000	      5.00000014
      8.53333333	     -1.88249048	      5.92873573	    -29.37239144	     -1.72735193	      0.84869605	      0.31366285	    -10.41965383	     -9.24341646	     17.31696572	      9.64938585	      0.16841355	     13.30910691	    -10.78436415	      0.00000000	     20.52622571	     -7.70691119	    -20.98169610	     12.00553344	      0.20953609	      6.94634235	    -11.83958990	      0.00000000	     -0.00545880	     -0.84607678	      2.10359541	     -0.01013753	     -1.12528212	      2.23507012	     -0.00896826	     -2.05715108	      2.23507012	     -0.00623886	     -2.05715108	      1.84064598	     -0.00506904	     -1.72531977	      1.70917127	     -0.00311916	     -1.31057293	      1.57769656	     -0.03899164	     -9.57098973	     11.69956659	      0.00000000	      0.00000000	      0.00000000	      0.00000000	      0.00000000	     -0.59069439	      0.68883484	      0.73733147	     26.58100054	     25.98239305	      0.00000000	      5.00000014	    -15.09501587	      6.80021232	    -47.95475627	     47.41349361	     25.03175746	      0.00000000	      5.00000014
